<?xml version="1.0" encoding="UTF-8" standalone="no"?>
<!-- Created with Inkscape (http://www.inkscape.org/) -->

<svg
   version="1.1"
   id="svg139"
   width="278"
   height="123"
   viewBox="0 0 278 123"
   sodipodi:docname="fedora-logo.svg"
   inkscape:export-filename="/home/duffy/Documents/Tickets/Design/MojeFedora/wordpress.new.png"
   inkscape:export-xdpi="96"
   inkscape:export-ydpi="96"
   inkscape:version="1.2.2 (b0a8486541, 2022-12-01)"
   xmlns:inkscape="http://www.inkscape.org/namespaces/inkscape"
   xmlns:sodipodi="http://sodipodi.sourceforge.net/DTD/sodipodi-0.dtd"
   xmlns="http://www.w3.org/2000/svg"
   xmlns:svg="http://www.w3.org/2000/svg">
  <defs
     id="defs143">
    <clipPath
       clipPathUnits="userSpaceOnUse"
       id="clipPath3241">
      <rect
         style="fill:#2b0000;fill-opacity:0.988235;stroke-width:35;stroke-linecap:round;stroke-linejoin:round"
         id="rect3243"
         width="156.3125"
         height="123.06836"
         x="-2.1542969"
         y="15.501953"
         ry="27.807673" />
    </clipPath>
  </defs>
  <sodipodi:namedview
     id="namedview141"
     pagecolor="#ffffff"
     bordercolor="#000000"
     borderopacity="0.25"
     inkscape:pageshadow="2"
     inkscape:pageopacity="0.0"
     inkscape:pagecheckerboard="0"
     inkscape:blackoutopacity="0.0"
     showgrid="false"
     inkscape:zoom="2"
     inkscape:cx="359.5"
     inkscape:cy="4.75"
     inkscape:window-width="1866"
     inkscape:window-height="1011"
     inkscape:window-x="54"
     inkscape:window-y="32"
     inkscape:window-maximized="1"
     inkscape:current-layer="g145"
     inkscape:showpageshadow="2"
     inkscape:deskcolor="#d1d1d1" />
  <g
     inkscape:groupmode="layer"
     inkscape:label="Image"
     id="g145">
    <path
       id="path1626-3"
       style="fill:#ffffff;fill-opacity:1;fill-rule:nonzero;stroke:none;stroke-width:0.740996"
       d="M 218.00584,6 C 187.0879,6 162.03062,31.048576 162.0105,61.959584 H 162 v 43.345106 h 0.0105 c 0.0168,7.01756 5.70075,12.69797 12.72187,12.69797 h 0.0599 0.0105 43.22572 c 30.92149,-0.021 55.97154,-25.076487 55.97154,-55.995333 C 274.00003,31.075356 248.93664,6 218.00464,6 Z m 11.34945,23.044995 c 9.40413,0 18.2832,7.205804 18.2832,17.137593 0,0.921102 -0.004,1.84336 -0.15522,2.88801 -0.26033,2.64247 -2.66945,4.537563 -5.29877,4.165052 -2.62928,-0.376922 -4.41278,-2.866061 -3.92634,-5.47778 0.0445,-0.298136 0.0598,-0.770753 0.0598,-1.575282 0,-5.631112 -4.60498,-7.805058 -8.96262,-7.805058 -4.355,0 -8.28389,3.662103 -8.29427,7.805058 0.0752,4.792283 0,9.550286 0,14.332971 l 8.07945,-0.06092 c 6.31032,-0.130645 6.38108,9.380824 0.0717,9.332556 l -8.15109,0.06092 c -0.0211,3.854546 0.0316,3.154597 0.0105,5.095943 0,0 0.0693,4.708202 -0.0717,8.282357 -0.97545,10.497037 -9.90987,18.891795 -20.64619,18.891795 -11.37963,0 -20.76554,-9.310108 -20.76554,-20.717739 0.34186,-11.735513 9.709,-20.958678 21.49355,-20.849099 l 6.56384,-0.04894 v 9.320603 l -6.56384,0.06091 h -0.0477 c -6.47685,0.191349 -12.01913,4.580392 -12.1252,11.51648 0,6.319967 5.10743,11.385305 11.44493,11.385305 6.327,0 11.38527,-4.608157 11.38527,-11.37331 0.0721,-11.219312 -0.05,-23.612618 -0.0105,-35.265667 0.004,-0.654727 0.0355,-1.175339 0.10754,-1.89751 1.06836,-8.627651 8.78573,-15.204271 17.5194,-15.204271 z" />
    <g
       transform="matrix(1.0666667,0,0,1.0666667,-384.28838,-14.278796)"
       id="g4246"
       style="fill:#ffffff">
      <g
         transform="matrix(0.94719453,0,0,0.94719453,130.33533,-101.57077)"
         id="text4359"
         style="font-style:normal;font-weight:normal;font-size:78.7509px;line-height:125%;font-family:sans-serif;letter-spacing:20.3571px;word-spacing:0px;fill:#ffffff;fill-opacity:1;stroke:none;stroke-width:1px;stroke-linecap:butt;stroke-linejoin:miter;stroke-opacity:1">
        <path
           inkscape:connector-curvature="0"
           id="path4418"
           style="font-style:normal;font-variant:normal;font-weight:normal;font-stretch:normal;font-family:Brusher;-inkscape-font-specification:Brusher;letter-spacing:0px;fill:#ffffff"
           d="m 310.08546,180.83573 1.49627,0.315 q -0.47251,0.94501 -1.33877,2.59878 -0.78751,1.57502 -3.54379,5.74882 -2.67753,4.09505 -5.43382,7.24508 -2.75628,3.15004 -6.85133,5.74882 -4.09504,2.59878 -7.95384,2.59878 -2.36253,0 -3.46504,-1.89002 -1.10251,-1.89002 -1.10251,-4.88256 0.0788,-3.07128 0.55125,-6.61507 0.55126,-3.62255 1.18127,-7.16634 0.63001,-3.54379 0.86626,-6.37882 0.315,-2.91379 -0.39376,-4.48881 -0.70875,-1.57501 -2.59878,-1.18126 l -0.0788,0.0787 q -1.18126,0.39376 -2.20502,1.41752 -1.26002,1.41751 -1.96878,2.91378 -0.78751,1.65377 -1.41751,4.09505 -0.55126,2.52003 -0.94501,4.80381 -0.0788,0.23625 -0.15751,0.70875 -0.0788,0.39376 -0.0788,0.63001 0,0.1575 -0.0788,0.39376 -0.0787,0.23625 -0.0787,0.315 -0.1575,0.315 -0.1575,0.47251 -0.1575,0.315 -0.315,0.55125 l -0.39376,0.39376 q -0.0788,0.0788 -0.23625,0.0788 -0.0788,0 -0.1575,0.0787 l -0.15751,0.0788 q -0.0788,0 -0.1575,0 h -0.1575 q -0.47251,0 -0.86626,-0.23625 -0.1575,-0.0787 -0.39375,-0.31501 -0.23626,-0.315 -0.39376,-0.63 -0.1575,-0.31501 -0.1575,-0.47251 -0.1575,-0.55126 -0.315,-1.49627 -0.0788,-0.4725 -0.23626,-1.41751 -0.0788,-0.94501 -0.1575,-1.41752 l -0.23625,-2.75628 q -0.0788,-0.39376 -0.23625,-1.26002 -0.0788,-0.86626 -0.15751,-1.33876 -0.63,-2.04753 -0.70875,-2.20503 -0.0788,-0.1575 -0.23626,-0.315 l -0.23625,0.23625 q -0.0788,0.1575 -0.315,0.47251 -0.15751,0.315 -0.23626,0.4725 l -0.94501,2.12628 -0.70876,2.20502 q -0.70875,2.20503 -1.18126,4.25255 -0.315,1.33877 -0.86626,3.54379 -0.47251,2.12628 -0.63001,2.91379 -0.1575,1.02376 -0.39375,2.20502 -1.49627,6.06382 -7.00883,6.30008 -3.22879,0.0787 -4.72506,-2.59878 -1.41752,-2.75629 -1.18126,-6.85133 0.23625,-4.1738 0.70875,-8.97761 0.47251,-4.8038 1.02377,-8.8201 0.63,-4.0163 0,-6.53633 0.23625,-0.0787 0.70876,-0.1575 0.4725,-0.0787 1.73252,-0.1575 1.26001,-0.0787 2.36252,0.1575 1.18127,0.1575 2.52003,0.86626 1.33877,0.63001 2.28378,1.81127 0.94501,1.10251 1.41752,3.30754 0.55125,2.12627 0.39375,5.04006 0,0.78751 -0.1575,2.04752 0.1575,-0.315 0.315,-0.86626 0.23626,-0.63 0.31501,-0.86626 0.55125,-1.33876 1.18126,-2.52003 0.63001,-1.10251 0.86626,-1.33876 l 0.63001,-0.63001 q 0.39375,-0.39375 1.02376,-0.70876 0.315,-0.1575 0.70876,-0.1575 0.1575,0 0.23625,-0.0787 h 0.0788 0.0787 l 0.1575,0.0787 h 0.23626 q 0.78751,0.1575 1.26001,0.47251 0.55126,0.39375 0.86626,0.86626 0.0788,0.1575 0.23625,0.4725 0.15751,0.23625 0.23626,0.39376 0.23625,0.55125 0.55125,1.49626 0.15751,0.55126 0.31501,1.49627 0.1575,1.02376 0.315,2.91378 0.1575,1.89003 0.1575,2.75629 v 0.23625 q 0.0788,-0.23625 0.39376,-1.33877 0.315,-1.18126 0.4725,-1.73252 0.70876,-2.36252 1.81127,-4.3313 0.94502,-1.81127 2.52003,-3.22878 1.18127,-1.02377 2.75629,-1.57502 l 0.1575,-0.0788 q 0.1575,0 0.23625,0 0.86626,-0.15751 1.73252,-0.23626 0.94501,-0.1575 3.15004,0.1575 2.28378,0.23626 3.85879,1.10252 1.57502,0.86626 2.67753,3.15003 1.18127,2.28378 0.94502,5.82757 -0.15751,2.36253 -0.63001,6.53633 -0.78751,7.87509 -0.1575,9.21386 0.86626,1.65377 4.6463,-1.41752 3.22879,-2.59878 6.30008,-6.30007 3.15003,-3.7013 4.6463,-6.06382 l 1.57502,-2.36253 z m -41.50174,-5.35506 v 0.0787 z m 0,0.0787 z m 0.0787,0 z m 3.38629,11.73388 z" />
        <path
           inkscape:connector-curvature="0"
           id="path4420"
           style="font-style:normal;font-variant:normal;font-weight:normal;font-stretch:normal;font-family:Brusher;-inkscape-font-specification:Brusher;letter-spacing:0px;fill:#ffffff"
           d="m 343.75148,175.71692 0.94501,1.65377 q -0.39376,0.315 -1.10252,0.78751 -0.0788,0.0788 -0.315,0.23625 -0.23625,0.0787 -0.315,0.1575 l -0.70876,0.47251 q -0.0787,0.0787 -0.39376,0.23625 -0.23625,0.1575 -0.39375,0.23625 -0.1575,0.0787 -0.47251,0.31501 -0.315,0.23625 -0.4725,0.315 -0.86626,0.39375 -1.02376,0.55126 -0.15751,0.1575 -0.55126,0.39375 -0.39375,0.1575 -0.55126,0.23625 -0.0788,0.0787 -0.315,0.23626 -0.1575,0.0788 -0.23625,0.0788 -0.31501,0.1575 -0.31501,0.1575 -0.0788,0 -0.1575,0.0787 -0.0788,0.0788 -0.1575,0.0788 -0.315,0.0787 -0.63001,0.31501 -0.315,0.0787 -0.63001,0.315 -0.86626,0.39375 -2.75628,1.18126 -1.18126,0.47251 -2.91378,1.02376 -0.23625,0.0788 -0.70876,0.23626 -0.39375,0.0787 -0.55126,0.0787 -0.23625,1.41751 -0.70875,2.83503 -1.96878,6.14257 -6.69383,9.45011 -4.72506,3.22879 -9.52886,1.73252 -4.80381,-1.49626 -6.77258,-6.85133 -1.96878,-5.43381 0,-11.65513 1.96877,-6.14258 6.69382,-9.37136 4.72506,-3.30754 9.52887,-1.81128 3.22878,1.02377 5.27631,4.1738 2.04752,3.07129 2.36253,7.16634 h 0.23625 q 1.96877,-0.39376 2.67753,-0.55126 0.63001,-0.0788 2.59878,-0.70876 0.47251,-0.1575 0.63001,-0.23625 0.4725,-0.1575 0.63,-0.1575 0.31501,-0.1575 0.31501,-0.1575 0.0787,0 0.1575,0 0.0788,-0.0787 0.1575,-0.0787 0.0787,-0.0788 0.23626,-0.15751 0.23625,-0.0788 0.315,-0.0788 l 1.18126,-0.4725 q 0.47251,-0.1575 1.02376,-0.39376 0.63001,-0.315 0.94502,-0.39375 0.63,-0.31501 0.86626,-0.39376 0.0788,-0.0788 0.315,-0.1575 0.315,-0.1575 0.39375,-0.23625 l 0.70876,-0.23625 z m -19.84524,1.65377 q -1.49626,-0.47251 -3.38629,0.94501 0.15751,0.315 0.63001,0.78751 0.63001,0.63001 1.33877,0.94501 0.39375,0.315 0.86626,0.39375 0.94501,0.23626 1.02376,0.23626 0.94501,0.23625 1.89002,0.23625 -0.55126,-2.99254 -2.36253,-3.54379 z m -5.82756,18.27021 q 1.96877,0.63001 4.17379,-1.57502 2.20503,-2.28377 3.38629,-6.06382 0.31501,-0.94501 0.63001,-2.52003 -1.57502,0.1575 -2.44128,0.0787 -0.1575,0 -0.55125,0 -0.31501,-0.0787 -0.63001,-0.0787 -0.23625,-0.0788 -0.47251,-0.1575 -0.55125,-0.0788 -1.65377,-0.39375 -1.33876,-0.39376 -2.75628,-1.41752 -0.4725,-0.315 -0.63001,-0.47251 -0.1575,0.39376 -0.7875,1.96878 -1.18127,3.78004 -0.70876,6.93008 0.55125,3.07128 2.44128,3.70129 z" />
        <path
           inkscape:connector-curvature="0"
           id="path4422"
           style="font-style:normal;font-variant:normal;font-weight:normal;font-stretch:normal;font-family:Brusher;-inkscape-font-specification:Brusher;letter-spacing:0px;fill:#ffffff"
           d="m 366.71721,176.11067 0.94501,2.36253 q -7.00883,3.46504 -16.06519,9.84387 1.81128,23.78277 1.57502,32.52413 -0.39375,17.95521 -6.53632,18.03396 -0.94501,0.1575 -2.20503,0 -1.18126,-0.0787 -3.78004,-1.10251 -2.52003,-1.02377 -5.04006,-2.99254 -2.52003,-1.96877 -5.67007,-6.22132 -3.15004,-4.25255 -5.82757,-10.15887 -4.4888,-8.97761 15.98644,-25.3578 l -0.86626,-14.88392 q -0.39375,-4.0163 -0.70876,-5.27631 0.23625,-0.0788 0.63001,-0.15751 0.4725,-0.0787 1.65377,-0.1575 1.26001,-0.0787 2.36253,0.0788 1.18126,0.0787 2.59878,0.70876 1.41751,0.63001 2.52003,1.73252 1.10251,1.10251 1.89002,3.22879 0.86626,2.04752 1.10251,4.80381 0,0.315 0,0.94501 0.0787,0.55125 0.0787,0.86626 3.93755,-2.59878 7.79634,-4.80381 3.8588,-2.20503 5.74882,-3.07129 l 1.81127,-0.94501 z m -26.38156,44.88803 q 0.31501,-9.84387 -0.0788,-23.86153 -14.64767,12.60015 -11.34013,19.05772 3.22879,6.06382 6.93008,8.1901 3.62254,2.12627 4.3313,-2.20503 0.1575,-0.55125 0.1575,-1.18126 z m 6.85133,-54.96815 q -1.73252,1.73253 -4.1738,1.73253 -2.44127,0 -4.17379,-1.73253 -1.73252,-1.73252 -1.73252,-4.17379 0,-2.44128 1.73252,-4.1738 1.73252,-1.73252 4.17379,-1.73252 2.44128,0 4.1738,1.73252 1.73252,1.73252 1.73252,4.1738 0,2.44127 -1.73252,4.17379 z" />
        <path
           inkscape:connector-curvature="0"
           id="path4424"
           style="font-style:normal;font-variant:normal;font-weight:normal;font-stretch:normal;font-family:Brusher;-inkscape-font-specification:Brusher;letter-spacing:0px;fill:#ffffff"
           d="m 392.6275,178.70945 1.57502,1.26002 q -6.53633,12.20639 -16.45894,18.66397 -8.42635,5.51256 -14.25392,3.70129 -6.06382,-1.96877 -5.35506,-11.41888 0.0788,-1.26002 0.315,-2.59878 0.70876,-4.0163 2.52003,-6.93009 1.89002,-2.91378 4.09505,-4.3313 2.28378,-1.49626 4.80381,-2.12627 2.59878,-0.70876 4.56755,-0.63001 1.96877,0 3.30754,0.39376 1.73252,0.55125 2.83503,1.96877 1.10251,1.33877 1.26002,3.54379 0.1575,2.20503 -1.57502,4.96131 -2.75628,4.4888 -10.23762,4.25255 -0.86626,7.79634 3.38629,7.16633 4.6463,-0.70876 12.9939,-9.76511 4.80381,-5.27631 6.22132,-8.11135 z m -16.30144,0.31501 q -0.4725,0 -0.86626,0 -0.39375,0 -1.26001,0.4725 -0.78751,0.39376 -1.41752,1.18127 -0.63001,0.78751 -1.33877,2.59878 -0.70875,1.73252 -1.10251,4.1738 5.82757,0.39375 7.87509,-3.78005 0.31501,-0.70876 0.47251,-1.65377 0.1575,-1.02376 -0.39376,-1.96877 -0.55125,-1.02376 -1.96877,-1.02376 z" />
      </g>
    </g>
  </g>
</svg>
